<svg width="20" height="20" viewBox="0 0 20 20" fill="none" xmlns="http://www.w3.org/2000/svg">
    <path d="m16.746 5.127.444-.277H2.81l.444.277L9.92 9.294l.079.05.08-.05 6.666-4.167zm-.08 10.023h.15V6.396l-.229.143L10 10.656 3.413 6.54l-.23-.143v8.754h13.484zm0-11.667c.834 0 1.517.683 1.517 1.517v10c0 .834-.683 1.517-1.516 1.517H3.333A1.522 1.522 0 0 1 1.817 15V5c0-.834.683-1.517 1.516-1.517h13.334z" fill="#62856D" stroke="#fff" stroke-width=".3"/>
    <path fill-rule="evenodd" clip-rule="evenodd" d="M17.015 4.9 10 9.285 2.985 4.9h14.03zm-.248 10.2H3.233V6.486L10 10.716l6.767-4.23V15.1zM10 10.833 3.333 6.667V15h13.334V6.667L10 10.833zM18.233 5c0-.861-.705-1.567-1.566-1.567H3.333c-.861 0-1.566.706-1.566 1.567v10c0 .861.705 1.567 1.566 1.567h13.334c.861 0 1.566-.706 1.566-1.567V5zm-1.566 0H3.333L10 9.167 16.667 5zm0-1.667c.916 0 1.666.75 1.666 1.667v10c0 .917-.75 1.667-1.666 1.667H3.333c-.916 0-1.666-.75-1.666-1.667V5c0-.917.75-1.667 1.666-1.667h13.334z" fill="#62856D" stroke="#fff" stroke-width=".3"/>
</svg>
