<svg width="20" height="20" viewBox="0 0 20 20" fill="none" xmlns="http://www.w3.org/2000/svg">
    <path fill-rule="evenodd" clip-rule="evenodd" d="M5 8.333v-2.5a5 5 0 1 1 10 0v2.5h.833a2.5 2.5 0 0 1 2.5 2.5v5.834a2.5 2.5 0 0 1-2.5 2.5H4.167a2.5 2.5 0 0 1-2.5-2.5v-5.834a2.5 2.5 0 0 1 2.5-2.5H5zm2.643-4.857a3.333 3.333 0 0 1 5.69 2.357v2.5H6.667v-2.5c0-.884.35-1.732.976-2.357zM4.167 10a.833.833 0 0 0-.834.833v5.834c0 .46.373.833.834.833h11.666c.46 0 .834-.373.834-.833v-5.834a.833.833 0 0 0-.834-.833H4.167z" fill="#62856D" stroke="#fff" stroke-width=".5" stroke-linecap="round" stroke-linejoin="round"/>
</svg>
