<svg width="20" height="20" viewBox="0 0 20 20" fill="none" xmlns="http://www.w3.org/2000/svg">
    <g clip-path="url(#z8tt5bufpa)">
        <path fill-rule="evenodd" clip-rule="evenodd" d="M3.838 10a11.674 11.674 0 0 0 1.54 2.072c1.12 1.194 2.684 2.303 4.622 2.303 1.938 0 3.503-1.108 4.622-2.303A11.677 11.677 0 0 0 16.162 10a11.676 11.676 0 0 0-1.54-2.073C13.502 6.733 11.938 5.625 10 5.625c-1.938 0-3.503 1.108-4.622 2.302A11.672 11.672 0 0 0 3.838 10zm13.037 0 .559-.28-.001-.002-.002-.004-.008-.014a11.556 11.556 0 0 0-.483-.82 12.918 12.918 0 0 0-1.406-1.807C14.31 5.767 12.437 4.375 10 4.375S5.69 5.767 4.466 7.073a12.922 12.922 0 0 0-1.77 2.406 7.733 7.733 0 0 0-.12.22l-.007.015-.002.004v.002l.558.28-.559-.28a.625.625 0 0 0 0 .56l.559-.28-.559.28.001.002.002.004.007.014a5.16 5.16 0 0 0 .12.221 12.92 12.92 0 0 0 1.77 2.406C5.69 14.233 7.563 15.626 10 15.626s4.31-1.392 5.534-2.697a12.916 12.916 0 0 0 1.77-2.407 8.062 8.062 0 0 0 .12-.22l.007-.015.002-.004v-.002l-.558-.28zm0 0 .559.28a.626.626 0 0 0 0-.56l-.559.28z" fill="#62856D"/>
        <path d="m16.875 10 .559-.28m-.559.28.558.28v.002l-.002.004-.008.014a11.55 11.55 0 0 1-.483.82 12.916 12.916 0 0 1-1.406 1.807c-1.224 1.306-3.097 2.698-5.534 2.698s-4.31-1.392-5.534-2.697a12.92 12.92 0 0 1-1.77-2.407 7.725 7.725 0 0 1-.12-.22l-.007-.015-.002-.004-.001-.002M16.875 10l.559.28a.626.626 0 0 0 0-.56m-.559.28.559-.28m0 0-.001-.002-.002-.004-.008-.014a11.556 11.556 0 0 0-.483-.82 12.918 12.918 0 0 0-1.406-1.807C14.31 5.767 12.437 4.375 10 4.375S5.69 5.767 4.466 7.073a12.922 12.922 0 0 0-1.77 2.406 7.733 7.733 0 0 0-.12.22l-.007.015-.002.004v.002l.558.28m0 0-.559-.28a.625.625 0 0 0 0 .56m.559-.28-.559.28m.559-.28-.559.28m1.543.162A10.7 10.7 0 0 1 3.838 10a11.672 11.672 0 0 1 1.54-2.073C6.498 6.733 8.062 5.625 10 5.625c1.938 0 3.503 1.108 4.622 2.302A11.676 11.676 0 0 1 16.162 10a11.677 11.677 0 0 1-1.54 2.072c-1.12 1.194-2.684 2.303-4.622 2.303-1.938 0-3.503-1.108-4.622-2.303-.554-.59-.98-1.184-1.269-1.63z" stroke="#fff" stroke-width=".3" stroke-linecap="round" stroke-linejoin="round"/>
        <path fill-rule="evenodd" clip-rule="evenodd" d="M10 8.75a1.25 1.25 0 1 0 0 2.5 1.25 1.25 0 0 0 0-2.5zM7.5 10a2.5 2.5 0 1 1 5 0 2.5 2.5 0 0 1-5 0z" fill="#62856D" stroke="#fff" stroke-width=".3" stroke-linecap="round" stroke-linejoin="round"/>
    </g>
    <defs>
        <clipPath id="z8tt5bufpa">
            <path fill="#fff" transform="translate(2.5 2.5)" d="M0 0h15v15H0z"/>
        </clipPath>
    </defs>
</svg>
